<svg id="visual" viewBox="0 0 900 600" width="900" height="600" xmlns="http://www.w3.org/2000/svg" xmlns:xlink="http://www.w3.org/1999/xlink" version="1.1"><rect x="0" y="0" width="900" height="600" fill="#0A86ED"></rect><path d="M0 389L21.5 405.3C43 421.7 86 454.3 128.8 463C171.7 471.7 214.3 456.3 257.2 437.8C300 419.3 343 397.7 385.8 386.8C428.7 376 471.3 376 514.2 378C557 380 600 384 642.8 390.5C685.7 397 728.3 406 771.2 415.7C814 425.3 857 435.7 878.5 440.8L900 446L900 601L878.5 601C857 601 814 601 771.2 601C728.3 601 685.7 601 642.8 601C600 601 557 601 514.2 601C471.3 601 428.7 601 385.8 601C343 601 300 601 257.2 601C214.3 601 171.7 601 128.8 601C86 601 43 601 21.5 601L0 601Z" fill="#ffffff" stroke-linecap="round" stroke-linejoin="miter"></path></svg>